<?xml version="1.0" encoding="UTF-8" standalone="no"?>
<!-- Created with Inkscape (http://www.inkscape.org/) -->

<svg
   width="210mm"
   height="297mm"
   viewBox="0 0 210 297"
   version="1.1"
   id="svg5"
   inkscape:version="1.1.1 (3bf5ae0d25, 2021-09-20)"
   sodipodi:docname="pv.svg"
   xmlns:inkscape="http://www.inkscape.org/namespaces/inkscape"
   xmlns:sodipodi="http://sodipodi.sourceforge.net/DTD/sodipodi-0.dtd"
   xmlns="http://www.w3.org/2000/svg"
   xmlns:svg="http://www.w3.org/2000/svg">
  <sodipodi:namedview
     id="namedview7"
     pagecolor="#ffffff"
     bordercolor="#999999"
     borderopacity="1"
     inkscape:pageshadow="0"
     inkscape:pageopacity="0"
     inkscape:pagecheckerboard="0"
     inkscape:document-units="mm"
     showgrid="false"
     inkscape:zoom="0.37861251"
     inkscape:cx="694.64159"
     inkscape:cy="740.86299"
     inkscape:window-width="1920"
     inkscape:window-height="1009"
     inkscape:window-x="-8"
     inkscape:window-y="-8"
     inkscape:window-maximized="1"
     inkscape:current-layer="layer1" />
  <defs
     id="defs2" />
  <g
     inkscape:label="Camada 1"
     inkscape:groupmode="layer"
     id="layer1">
    <path
       id="text1574"
       style="font-style:normal;font-weight:normal;font-size:159.363px;line-height:1.25;font-family:sans-serif;fill:#64dd17;fill-opacity:1;stroke:none;stroke-width:5.86635"
       d="m 32.984497,0.4272766 v 4.2390063 h 5.843756 c 5.881601,0 10.311752,1.6808474 13.290743,5.0417592 2.062379,2.3679169 3.093841,8.4404059 3.093841,18.2176069 V 128.29444 c 0,8.86059 -0.764161,14.4755 -2.291847,16.84341 -2.303851,3.48691 -5.851821,5.55157 -10.64279,6.19606 h -9.188699 v 0.2199 h -0.105004 v 4.23901 h 0.105004 v 1.24636 c 5.140176,0.82243 8.583921,1.69609 10.331578,2.62132 3.186912,1.64486 5.808655,3.70138 7.864723,6.16866 2.056071,2.36448 4.214392,6.32255 6.47607,11.87394 L 108.1871,296.90355 h 6.32237 l 50.11706,-121.20544 c 2.87849,-7.19624 6.11636,-12.33641 9.71448,-15.42052 2.05607,-1.74765 5.75735,-2.8272 11.10314,-3.23841 v -5.70527 h -46.10709 v 5.70527 c 5.34578,0 8.89209,0.30844 10.63975,0.92526 1.74766,0.51402 3.1873,1.5419 4.31814,3.08395 0.82242,0.92523 1.23342,2.10733 1.23342,3.54658 0,2.98131 -1.18209,7.35113 -3.54658,13.10813 l -33.00048,80.95733 -32.845263,-78.02785 c -2.158874,-4.93457 -3.238415,-9.20107 -3.238415,-12.79919 0,-3.28972 1.027882,-5.91069 3.083953,-7.86396 2.158875,-1.95327 5.243275,-2.93025 9.252614,-2.93025 h 4.317379 v -1.24636 h 0.0023 v -4.23901 h -0.0023 v -0.2199 h -9.410882 c -4.176276,-0.5514 -7.41912,-2.15538 -9.721334,-4.8211 -2.138761,-2.36792 -3.207977,-8.44116 -3.207977,-18.21837 V 83.037292 c 4.964984,1.069385 9.623926,1.871296 13.97784,2.405984 4.35391,0.534692 8.402741,0.801997 12.145585,0.801997 15.27688,0 27.07828,-3.971806 35.40418,-11.915785 8.40228,-7.943979 12.60364,-18.256335 12.60364,-30.936145 0,-9.318898 -2.75006,-17.377286 -8.24974,-24.175499 C 137.59322,12.419631 130.83283,7.6074026 122.81247,4.781179 114.79211,1.8785735 103.83113,0.4272766 89.929163,0.4272766 Z m 59.236514,9.2807655 c 6.416292,0 12.145209,1.4512969 17.186579,4.3539019 5.04137,2.826224 8.93692,7.141601 11.68675,12.946816 2.74985,5.728829 4.12411,11.954603 4.12411,18.67643 0,9.777205 -2.90259,17.759328 -8.7078,23.946467 -5.72883,6.11075 -12.56472,9.16587 -20.508698,9.16587 -2.215146,0 -4.888949,-0.191041 -8.020707,-0.572961 -3.131759,-0.381925 -6.721489,-0.954282 -10.76986,-1.718127 V 11.884993 c 6.11075,-1.4513 11.114022,-2.1769509 15.009626,-2.1769509 z" />
  </g>
</svg>
