<?xml version="1.0" encoding="UTF-8"?>
<!DOCTYPE svg PUBLIC "-//W3C//DTD SVG 1.1//EN" "http://www.w3.org/Graphics/SVG/1.1/DTD/svg11.dtd">
<!-- Creator: CorelDRAW 2018 (64 Bit) -->
<svg xmlns="http://www.w3.org/2000/svg" xml:space="preserve" width="1.3546mm" height="1.3546mm" version="1.1" style="shape-rendering:geometricPrecision; text-rendering:geometricPrecision; image-rendering:optimizeQuality; fill-rule:evenodd; clip-rule:evenodd"
viewBox="0 0 135.46 135.46"
 xmlns:xlink="http://www.w3.org/1999/xlink">
 <defs>
  <style type="text/css">
   <![CDATA[
    .fil0 {fill:#1DE016;fill-rule:nonzero}
   ]]>
  </style>
 </defs>
 <g id="Camada_x0020_1">
  <metadata id="CorelCorpID_0Corel-Layer"/>
  <path class="fil0" d="M51.73 38.15l0 18.54c0,3.99 0.43,6.47 1.31,7.42 2.02,2.35 5.01,2.03 7.79,2.06l0 1.72c-1.49,0 -4.68,0.52 -5.85,1.45 -0.85,0.72 -1.3,1.63 -1.3,2.77 0,1.55 0.72,3.99 2.16,7.28l16.12 37.15 14.97 -36.69c1.47,-3.62 2.2,-6.11 2.2,-7.52 0,-0.9 -0.46,-1.77 -1.36,-2.58 -0.9,-0.83 -2.44,-1.42 -4.57,-1.76 -0.16,-0.03 -0.43,-0.07 -0.8,-0.14l0 -1.72 19.41 0 0 1.72c-2.22,0.41 -3.93,1.13 -5.08,2.17 -1.65,1.53 -3.11,3.89 -4.39,7.07l-22.02 53.92 -1.72 0 -23.72 -54.64c-1.21,-2.82 -2.08,-4.54 -2.56,-5.17 -0.79,-0.97 -1.75,-1.73 -2.89,-2.3 -1.86,-0.87 -3.79,-1.01 -5.78,-1.01l0 -1.72c3.04,-0.04 6.22,0.3 8.15,-2.62 0.62,-0.95 0.94,-3.25 0.94,-6.86l0 -41.05c0,-3.99 -0.41,-6.46 -1.27,-7.41 -1.22,-1.38 -3.02,-2.06 -5.43,-2.06l-2.39 0 0 -1.72 23.26 0c5.67,0 10.13,0.58 13.42,1.75 3.27,1.17 6.03,3.15 8.28,5.93 2.25,2.76 3.36,6.05 3.36,9.84 0,5.18 -1.71,9.4 -5.11,12.64 -3.42,3.23 -8.23,4.86 -14.47,4.86 -1.54,0 -3.18,-0.11 -4.95,-0.33 -1.78,-0.22 -3.68,-0.54 -5.71,-0.99zm0 -2.68c1.65,0.32 3.12,0.55 4.39,0.7 1.26,0.16 2.36,0.25 3.26,0.25 3.24,0 6,-1.27 8.35,-3.77 2.35,-2.51 3.53,-5.74 3.53,-9.71 0,-2.74 -0.56,-5.31 -1.69,-7.64 -1.11,-2.35 -2.69,-4.11 -4.74,-5.28 -2.06,-1.15 -4.38,-1.75 -6.99,-1.75 -1.6,0 -3.62,0.3 -6.11,0.9l0 26.3z"/>
 </g>
</svg>
